<svg xmlns="http://www.w3.org/2000/svg" width="32" height="32"><defs><clipPath id="deals-special-mono_svg__a"><path fill="none" d="M0 0h32v32H0z"></path></clipPath></defs><g fill="#4c4c4c" clip-path="url(#deals-special-mono_svg__a)"><path d="M10.4 15.219H4l3.2-6.25 3.2 6.247Z"></path><path d="M16.8 3.448v1.619a.8.8 0 0 1-1.6 0V3.448a.8.8 0 0 1 1.6 0ZM12.04 7.442a.807.807 0 0 1-.566-.229l-1.131-1.1a.768.768 0 0 1 0-1.1.813.813 0 0 1 1.131 0l1.131 1.1a.768.768 0 0 1 0 1.1.807.807 0 0 1-.565.229ZM19.961 7.442a.807.807 0 0 1-.566-.229.768.768 0 0 1 0-1.1l1.131-1.1a.813.813 0 0 1 1.131 0 .768.768 0 0 1 0 1.1l-1.131 1.1a.807.807 0 0 1-.565.229Z" opacity="0.4"></path><path d="m10.4 15.219-3.2-6.25H16l-5.6 6.248Z" opacity="0.8"></path><path d="M16 15.219h-5.6l5.6-6.25v6.25Z" opacity="0.6"></path><path d="M21.6 15.219H16v-6.25Z" opacity="0.7"></path><path d="m21.601 15.219-5.6-6.25h8.8l-3.2 6.248Z" opacity="0.8"></path><path d="M28 15.219h-6.4l3.2-6.25 3.2 6.247Z"></path><path d="m4 15.219 12 14.115-5.6-14.115Z" opacity="0.7"></path><path d="m16 29.325-5.6-14.106H16v14.105Z" opacity="0.8"></path><path d="M16.001 29.326V15.219h5.6Z"></path><path d="m16.004 29.326 5.6-14.107h6.4Z" opacity="0.7"></path></g></svg>