<svg xmlns="http://www.w3.org/2000/svg" width="32" height="32"><defs><clipPath id="cheap-mono_svg__a"><path fill="none" d="M0 0h32v32H0z"></path></clipPath></defs><g fill="#4c4c4c" stroke="rgba(255,0,0,0)" clip-path="url(#cheap-mono_svg__a)"><path d="M8.215 24.387a7.067 7.067 0 0 1-5.062-2.086 6.285 6.285 0 0 1-1.72-3.316v-.01a6.573 6.573 0 0 1-.1-.938 6.26 6.26 0 0 1 2.276-4.785 7.1 7.1 0 0 1 6.624-1.326 6.457 6.457 0 0 1 2.427 1.232 6.067 6.067 0 0 1 2.273 3.554v.025a10.817 10.817 0 0 1 .1 1.253 7.714 7.714 0 0 1-.254 1.848 6.248 6.248 0 0 1-1.971 2.891 7.086 7.086 0 0 1-4.593 1.658Zm0-9.572a3.29 3.29 0 0 0-3.393 3.174 3.291 3.291 0 0 0 3.388 3.175 3.291 3.291 0 0 0 3.389-3.175 3.291 3.291 0 0 0-3.389-3.177Z" stroke-miterlimit="10"></path><path d="M23.956 22.206h-.264c-3.6-.019-5.971-.72-6.526-1.652v-.005 2.843c0 1.09 2.984 1.943 6.726 1.943s6.777-.853 6.777-1.943v-3.128c-.002 1.031-3.072 1.923-6.713 1.942Z" opacity="0.6"></path><path d="M23.839 19.08c-3.59 0-6.27-.758-6.676-1.705v3.174c.556.947 2.984 1.658 6.676 1.658s6.828-.9 6.828-1.942v-3.032c-.251 1.041-3.237 1.847-6.828 1.847Z" opacity="0.5"></path><path d="M30.666 17.233c-.253 1.042-3.237 1.848-6.828 1.848s-6.271-.758-6.676-1.705a.4.4 0 0 1-.051-.237v-.237c.354-.948 3.186-1.706 6.625-1.753h.1a18.19 18.19 0 0 1 5.31.758c.961.332 1.517.758 1.517 1.232v.095ZM23.737 8.988c-.607.9-3.591 1.563-6.878 1.563s-6.524-.805-6.726-1.8a.167.167 0 0 1-.051-.142c0-1.042 3.035-1.942 6.777-1.942 2.883 0 5.513.521 6.524 1.279a.8.8 0 0 1 .455.663.486.486 0 0 1-.101.379Z"></path><path d="M16.859 10.552c-3.132 0-6.217-.731-6.676-1.661v3.02l.051.015a6.45 6.45 0 0 1 2.428 1.232c.04.031.079.063.118.1a18.786 18.786 0 0 0 4.08.426c3.591 0 6.676-.9 6.878-1.942V8.994c-.604.895-3.592 1.558-6.879 1.558Z" opacity="0.4"></path><path d="M23.607 12.025a2.481 2.481 0 0 1-1 .705 7.233 7.233 0 0 1-.806.3 11.979 11.979 0 0 1-1.237.309c-.36.071-.741.132-1.14.183q-.3.038-.611.067c-.622.058-1.277.09-1.951.09a18.778 18.778 0 0 1-4.08-.426 6.075 6.075 0 0 1 2.158 3.458l1.922.092.253.095c.354-.947 3.186-1.706 6.625-1.753v-3.411a.738.738 0 0 1-.133.291Z" opacity="0.5"></path><path d="M17.112 17.137V16.9l.021-.046c-.007.015-.015.03-.021.046l-.253-.095-1.921-.092a10.909 10.909 0 0 1 .1 1.277 7.737 7.737 0 0 1-.253 1.848 1.64 1.64 0 0 1-.036.1l2.109.086h.3v-2.653a.4.4 0 0 1-.046-.234Z" opacity="0.6"></path><path d="m16.859 20.027-2.109-.086a6.285 6.285 0 0 1-1.866 2.725 20.014 20.014 0 0 0 3.925.393h.354v-3.032Z" opacity="0.7"></path><path d="M8.211 14.816a3.181 3.181 0 1 1-3.388 3.174 3.287 3.287 0 0 1 3.388-3.174Z" opacity="0.4"></path></g></svg>