<svg xmlns="http://www.w3.org/2000/svg" width="32" height="32"><defs><clipPath id="deal-mono_svg__a"><path fill="none" d="M0 0h32v32H0z"></path></clipPath></defs><g fill="#4c4c4c" clip-path="url(#deal-mono_svg__a)"><path d="M11.302 29.334a.928.928 0 0 1-.73-.364.852.852 0 0 1-.133-.764l2.374-8.377a1.417 1.417 0 0 0 .028-.671 1.442 1.442 0 0 0-.753-1 1.417 1.417 0 0 0-.653-.156H6.767a1.453 1.453 0 0 1-.37-.047 1.408 1.408 0 0 1-.329-.133 1.446 1.446 0 0 1-.728-1.114 1.407 1.407 0 0 1 .01-.355 1.452 1.452 0 0 1 .105-.358L10.82 3.767a1.834 1.834 0 0 1 1.679-1.1h3.907l-4.614 10.855a1.943 1.943 0 0 0-.135.478 1.884 1.884 0 0 0-.009.473 1.935 1.935 0 0 0 .978 1.478 1.886 1.886 0 0 0 .439.176 1.944 1.944 0 0 0 .492.063 3.306 3.306 0 0 1 .906.125 3.173 3.173 0 0 1 .79.347 3.29 3.29 0 0 1 1.558 2.805 3.174 3.174 0 0 1-.124.854 3.306 3.306 0 0 1-.374.835l-5.1 8.17h.088a.83.83 0 0 0 .342-.072.841.841 0 0 0 .129-.072.828.828 0 0 1-.471.145Z"></path><path d="m11.983 28.99 9.039-11.575a2.021 2.021 0 0 0-1.593-3.266 1.79 1.79 0 0 1-1.64-2.51l2.807-6.4a1.834 1.834 0 0 0-1.679-2.572h-2.511l-4.614 10.855a1.918 1.918 0 0 0 1.765 2.668 3.249 3.249 0 0 1 2.756 4.969l-5.1 8.17a.848.848 0 0 0 .77-.339Z" opacity="0.92"></path><g opacity="0.2"><path d="M22.195 18.805a.564.564 0 0 1-.11-.046.537.537 0 0 1-.153-.124.517.517 0 0 1-.117-.4l.364-3.316a1.07 1.07 0 0 0-.878-1.171l-1.471-.267a.872.872 0 0 1-.4-.182.891.891 0 0 1-.329-.74.872.872 0 0 1 .14-.418l2.688-4.212a.536.536 0 0 1 .2-.189.516.516 0 0 1 .242-.059.564.564 0 0 1 .311.095.52.52 0 0 1 .158.165.518.518 0 0 0-.068-.089.544.544 0 0 0-.171-.121l-1.223 3.792a1.258 1.258 0 0 0 .723 1.552l.7.285a1.258 1.258 0 0 1 .714 1.583l-1.348 3.852.028.009Z"></path><path d="m24.921 13.006-1.511-.294a1.07 1.07 0 0 1-.859-1.167l.359-3.27a.519.519 0 0 0-.308-.543l-1.223 3.791a1.258 1.258 0 0 0 .725 1.552l.7.285a1.258 1.258 0 0 1 .714 1.583l-1.353 3.854a.521.521 0 0 0 .629-.216l2.7-4.231a.883.883 0 0 0-.573-1.344Z" opacity="0.88"></path></g></g></svg>