<svg width="19" height="20" viewBox="0 0 19 20" fill="none" xmlns="http://www.w3.org/2000/svg">
<path opacity="0.24" d="M9.151 18.645C14.205 18.645 18.302 14.5511 18.302 9.501C18.302 4.45091 14.205 0.357002 9.151 0.357002C4.09704 0.357002 0 4.45091 0 9.501C0 14.5511 4.09704 18.645 9.151 18.645Z" fill="#235FD8"/>
<path opacity="0.72" d="M9.15099 18.645C8.0877 18.647 7.03233 18.4622 6.03299 18.099L5.08398 19.999H13.218L12.269 18.099C11.2696 18.4622 10.2143 18.647 9.15099 18.645Z" fill="#235FD8"/>
<g opacity="0.7">
<path opacity="0.4" d="M1.94997 6.521C1.16186 8.42986 1.16186 10.5732 1.94997 12.482L9.14997 9.501L1.94997 6.521Z" fill="#235FD8"/>
<path opacity="0.4" d="M16.3519 6.521L9.15186 9.50201L16.3519 12.483C16.7442 11.5383 16.9462 10.5254 16.9462 9.50251C16.9462 8.47958 16.7442 7.46671 16.3519 6.52201V6.521Z" fill="#235FD8"/>
</g>
<g opacity="0.9">
<path opacity="0.6" d="M6.16922 2.304C4.25933 3.09493 2.74151 4.61167 1.94922 6.521L9.14922 9.504L6.16922 2.304Z" fill="#235FD8"/>
<path opacity="0.6" d="M16.3514 6.521C15.5593 4.61186 14.0419 3.09515 12.1324 2.304L9.15137 9.504L16.3514 6.521Z" fill="#235FD8"/>
<path opacity="0.6" d="M6.16943 16.701C8.07982 17.4884 10.224 17.4884 12.1344 16.701L9.15242 9.50101L6.16943 16.701Z" fill="#235FD8"/>
</g>
<g opacity="0.6">
<path opacity="0.2" d="M12.1344 2.304C10.224 1.51664 8.07982 1.51664 6.16943 2.304L9.15242 9.504L12.1344 2.304Z" fill="#235FD8"/>
<path opacity="0.2" d="M12.1344 16.701C14.0437 15.9101 15.5611 14.3938 16.3534 12.485L9.15137 9.50101L12.1344 16.701Z" fill="#235FD8"/>
<path opacity="0.2" d="M1.94922 12.482C2.74151 14.3913 4.25933 15.9081 6.16922 16.699L9.15222 9.499L1.94922 12.482Z" fill="#235FD8"/>
</g>
<path d="M11.4121 0L6.66711 0L9.03911 3.725L11.4121 0Z" fill="#235FD8"/>
</svg>
