<svg xmlns="http://www.w3.org/2000/svg" xmlns:xlink="http://www.w3.org/1999/xlink" width="16" height="16" viewBox="0 0 16 16">
  <defs>
    <clipPath id="clip-path">
      <rect id="Rectangle_4346" data-name="Rectangle 4346" width="16" height="16" fill="none"/>
    </clipPath>
  </defs>
  <g id="discount-mono" clip-path="url(#clip-path)">
    <g id="Group_13926" data-name="Group 13926" transform="translate(0.667 0.667)">
      <path id="Path_11864" data-name="Path 11864" d="M326.734,286.068l-2.5-3.629a1.376,1.376,0,0,1-.129-1.307l.268-.628.983-2.307a1.384,1.384,0,0,0-.088.586l.18,2.572.046.683a1.377,1.377,0,0,0,.107.444l1.131,3.585Z" transform="translate(-323.998 -275.243)" fill="#ff5a00" opacity="0.32"/>
      <path id="Path_11842" data-name="Path 11842" d="M329.3,278h0a.816.816,0,0,1-1.033-.541h0l-.884-2.8a.846.846,0,0,1,.527-1.06h0a.815.815,0,0,1,1.033.541h0l.884,2.8A.846.846,0,0,1,329.3,278Z" transform="translate(-325.216 -273.557)" fill="#ff5a00" opacity="0.72"/>
      <path id="Subtraction_16" data-name="Subtraction 16" d="M330.38,292.18h0a1.515,1.515,0,0,1-.539-.481l-2.194-3.189-1.137-3.6a1.328,1.328,0,0,0,.6.665l7.987,4.187-3.178,2.308A1.459,1.459,0,0,1,330.38,292.18Z" transform="translate(-324.911 -277.682)" fill="#ff5a00" opacity="0.48"/>
      <path id="Path_11865" data-name="Path 11865" d="M337.627,281.543a.4.4,0,0,1-.548.146.417.417,0,0,1-.143-.563.4.4,0,0,1,.546-.148.417.417,0,0,1,.147.561Z" transform="translate(-328.68 -276.234)" fill="#ff5a00" opacity="0.88"/>
      <path id="Path_11866" data-name="Path 11866" d="M340.089,287.517a.4.4,0,0,1-.548.146.417.417,0,0,1-.143-.563.4.4,0,0,1,.546-.148.417.417,0,0,1,.146.561l0,0Z" transform="translate(-329.575 -278.405)" fill="#ff5a00" opacity="0.88"/>
      <path id="Path_11867" data-name="Path 11867" d="M338.573,278.46l-7.976-4.181a1.273,1.273,0,0,0-1.28.054l-.723.463.743,2.355a.822.822,0,0,1,.023.2.891.891,0,0,1,.2.434.9.9,0,0,1-.351.875h0l-.027.018a.25.25,0,0,1-.027.018.85.85,0,0,1-.088.048l-.029.013a.687.687,0,0,1-.066.025.863.863,0,0,1-1.092-.573h0l-.011-.036a.848.848,0,0,1-.02-.088.907.907,0,0,1,0-.278.811.811,0,0,1-.078-.143h0l-.617-1.953-.56.359a1.346,1.346,0,0,0-.61,1.227l.179,2.571.046.683a1.338,1.338,0,0,0,.71,1.1l7.978,4.182a1.474,1.474,0,0,0,2.008-.666l2.313-4.65A1.554,1.554,0,0,0,338.573,278.46Zm-6.3-.216a1.189,1.189,0,0,1,1.649-.448h0a1.256,1.256,0,0,1,.435,1.693,1.19,1.19,0,0,1-1.649.448A1.257,1.257,0,0,1,332.278,278.244Zm-.979,3.611a.414.414,0,0,1,.258-.518l4.808-1.908a.4.4,0,0,1,.517.237l0,.005a.414.414,0,0,1-.232.53L331.8,282.12A.4.4,0,0,1,331.3,281.856Zm2.982,1.885a1.257,1.257,0,0,1-.436-1.693,1.189,1.189,0,0,1,1.649-.448h0a1.256,1.256,0,0,1,.435,1.693A1.19,1.19,0,0,1,334.281,283.741Z" transform="translate(-324.721 -273.766)" fill="#ff5a00"/>
    </g>
  </g>
</svg>
