<svg width="18" height="16" viewBox="0 0 18 16" fill="none" xmlns="http://www.w3.org/2000/svg">
<path d="M9.74558 0.509338H8.65363C10.6081 0.612384 12.4494 1.45865 13.8003 2.87488C15.1512 4.29112 15.9097 6.17019 15.9205 8.12739C15.9312 10.0846 15.1934 11.9719 13.8581 13.4029C12.5228 14.8339 10.691 15.7003 8.73777 15.8248H9.7484C11.7794 15.8248 13.7271 15.018 15.1632 13.5819C16.5993 12.1458 17.4061 10.198 17.4061 8.16708C17.4061 6.13612 16.5993 4.18835 15.1632 2.75224C13.7271 1.31613 11.7794 0.509338 9.7484 0.509338H9.74558Z" fill="#E1AA00"/>
<path d="M12.324 1.67048H13.7806C13.5205 1.50693 13.2508 1.35926 12.9729 1.22827H11.5163C11.7941 1.35952 12.0638 1.50718 12.324 1.67048Z" fill="#B88700"/>
<path d="M15.6392 6.09351H17.0771C17.035 5.94393 16.9882 5.79622 16.9378 5.65131H15.4999C15.5513 5.79622 15.5971 5.94393 15.6392 6.09351Z" fill="#B88700"/>
<path d="M14.6099 3.87971H16.058C15.9561 3.72825 15.8486 3.5796 15.7364 3.4375H14.2883C14.4023 3.58428 14.5108 3.73667 14.6099 3.87971Z" fill="#B88700"/>
<path d="M11.865 14.9376H13.3094C13.5602 14.8039 13.8034 14.6563 14.0377 14.4954H12.5914C12.3576 14.6561 12.1151 14.8037 11.865 14.9376Z" fill="#B88700"/>
<path d="M17.3659 7.86139H15.9281C15.9281 7.96423 15.9365 8.068 15.9365 8.17084V8.3036H17.3744V8.1671C17.3659 8.0652 17.3659 7.96329 17.3659 7.86139Z" fill="#B88700"/>
<path d="M15.5597 10.5156H16.9976C17.0443 10.3707 17.0911 10.2229 17.1247 10.0734H15.6878C15.6504 10.2229 15.6064 10.3707 15.5597 10.5156Z" fill="#B88700"/>
<path d="M14.4238 12.7257H15.8729C15.9785 12.5817 16.0804 12.434 16.1758 12.2834H14.7323C14.6304 12.4358 14.5304 12.5835 14.4238 12.7257Z" fill="#B88700"/>
<path d="M8.34512 15.4733C12.4262 15.4733 15.7345 12.165 15.7345 8.08389C15.7345 4.00282 12.4262 0.694458 8.34512 0.694458C4.26405 0.694458 0.955688 4.00282 0.955688 8.08389C0.955688 12.165 4.26405 15.4733 8.34512 15.4733Z" fill="url(#paint0_linear)"/>
<path opacity="0.3" d="M8.1815 0.947816C9.77445 0.949267 11.3211 1.48366 12.5752 2.46589C13.8293 3.44811 14.7186 4.8217 15.1017 6.36791C15.4847 7.91411 15.3394 9.54403 14.6889 10.9981C14.0384 12.4522 12.9201 13.6468 11.512 14.3917C10.104 15.1366 8.48715 15.3889 6.91907 15.1086C5.35099 14.8282 3.92179 14.0313 2.85908 12.8446C1.79637 11.658 1.16125 10.1499 1.05486 8.56048C0.948473 6.97109 1.37693 5.39181 2.27201 4.07411C2.92686 3.11008 3.80786 2.32109 4.838 1.77612C5.86814 1.23114 7.01608 0.946754 8.1815 0.947816ZM8.1815 0.694459C6.41288 0.6936 4.70267 1.32744 3.3618 2.48073C2.02093 3.63403 1.13844 5.2302 0.874763 6.97905C0.611088 8.72791 0.983741 10.5133 1.92497 12.0107C2.8662 13.5081 4.31351 14.6179 6.00376 15.1386C7.69402 15.6592 9.51498 15.556 11.1356 14.8478C12.7562 14.1395 14.0689 12.8732 14.8349 11.2791C15.6009 9.68495 15.7695 7.86887 15.3099 6.161C14.8503 4.45314 13.7932 2.96688 12.3306 1.97246C11.1068 1.14042 9.66133 0.695178 8.1815 0.694459Z" fill="url(#paint1_linear)"/>
<path d="M8.25723 15.8417C6.74009 15.8417 5.25701 15.3918 3.99555 14.5489C2.73408 13.706 1.75089 12.508 1.17031 11.1063C0.589719 9.70468 0.437811 8.16233 0.733792 6.67433C1.02977 5.18634 1.76035 3.81952 2.83313 2.74674C3.90592 1.67395 5.27273 0.943377 6.76073 0.647396C8.24872 0.351416 9.79107 0.503323 11.1927 1.08391C12.5944 1.6645 13.7924 2.64769 14.6353 3.90915C15.4782 5.17061 15.9281 6.65369 15.9281 8.17084C15.9281 10.2053 15.1199 12.1564 13.6813 13.5949C12.2428 15.0335 10.2917 15.8417 8.25723 15.8417ZM8.25723 0.887986C6.81682 0.887986 5.40876 1.31512 4.2111 2.11537C3.01344 2.91562 2.07998 4.05304 1.52876 5.38381C0.977534 6.71458 0.833309 8.17892 1.11432 9.59165C1.39533 11.0044 2.08895 12.3021 3.10748 13.3206C4.126 14.3391 5.42368 15.0327 6.83642 15.3137C8.24915 15.5948 9.71349 15.4505 11.0443 14.8993C12.375 14.3481 13.5125 13.4146 14.3127 12.217C15.113 11.0193 15.5401 9.61125 15.5401 8.17084C15.5401 7.21444 15.3517 6.26741 14.9857 5.38381C14.6197 4.50021 14.0833 3.69736 13.407 3.02108C12.7307 2.34481 11.9279 1.80836 11.0443 1.44236C10.1607 1.07636 9.21363 0.887986 8.25723 0.887986Z" fill="url(#paint2_linear)"/>
<path d="M9.60629 11.6393C9.55413 11.6906 9.48402 11.7194 9.4109 11.7197C9.32349 11.7202 9.23685 11.7034 9.15595 11.6704C9.07504 11.6373 9.00147 11.5885 8.93945 11.527C8.87742 11.4654 8.82818 11.3921 8.79453 11.3115C8.76088 11.2308 8.7435 11.1443 8.74338 11.0569V9.07583H9.87648C10.0555 9.07583 10.2272 9.00471 10.3538 8.87813C10.4804 8.75154 10.5515 8.57985 10.5515 8.40083C10.5515 8.22181 10.4804 8.05012 10.3538 7.92354C10.2272 7.79695 10.0555 7.72583 9.87648 7.72583H8.74244V6.3506H9.87648C10.0555 6.3506 10.2272 6.27949 10.3538 6.1529C10.4804 6.02631 10.5515 5.85462 10.5515 5.6756C10.5515 5.49658 10.4804 5.3249 10.3538 5.19831C10.2272 5.07173 10.0555 5.00061 9.87648 5.00061H8.74244V3.73569C8.74244 3.55828 8.67197 3.38814 8.54652 3.2627C8.42108 3.13725 8.25093 3.06677 8.07353 3.06677C7.89612 3.06677 7.72597 3.13725 7.60053 3.2627C7.47508 3.38814 7.40461 3.55828 7.40461 3.73569V5.00248H6.28834C6.10932 5.00248 5.93763 5.07359 5.81105 5.20018C5.68446 5.32677 5.61334 5.49846 5.61334 5.67748C5.61334 5.8565 5.68446 6.02818 5.81105 6.15477C5.93763 6.28135 6.10932 6.35247 6.28834 6.35247H7.40554V7.72303H6.28834C6.10932 7.72303 5.93763 7.79415 5.81105 7.92073C5.68446 8.04732 5.61334 8.21901 5.61334 8.39803C5.61334 8.57705 5.68446 8.74873 5.81105 8.87532C5.93763 9.00191 6.10932 9.07302 6.28834 9.07302H7.40554V11.0447C7.40554 11.5791 7.61743 12.0916 7.99474 12.47C8.37206 12.8484 8.88402 13.0617 9.41837 13.0632C9.6318 13.0631 9.84308 13.0206 10.04 12.9383C10.2369 12.856 10.4155 12.7354 10.5655 12.5836C10.6289 12.5208 10.6792 12.4461 10.7136 12.3638C10.7479 12.2814 10.7656 12.1931 10.7656 12.1039C10.7656 12.0147 10.7479 11.9264 10.7136 11.8441C10.6792 11.7617 10.6289 11.687 10.5655 11.6243C10.5022 11.5615 10.427 11.5119 10.3443 11.4784C10.2616 11.4449 10.1731 11.428 10.0839 11.4289C9.99475 11.4298 9.90661 11.4484 9.82462 11.4835C9.74263 11.5187 9.66843 11.5697 9.60629 11.6337V11.6393Z" fill="#704B00"/>
<defs>
<linearGradient id="paint0_linear" x1="8.34512" y1="15.4733" x2="8.34512" y2="0.694458" gradientUnits="userSpaceOnUse">
<stop offset="0.02" stop-color="#FCB900"/>
<stop offset="1" stop-color="#FCCA04"/>
</linearGradient>
<linearGradient id="paint1_linear" x1="4.02714" y1="14.1807" x2="12.3287" y2="1.96479" gradientUnits="userSpaceOnUse">
<stop offset="0.02" stop-color="#603813"/>
<stop offset="0.58" stop-color="#C69C6D"/>
<stop offset="1" stop-color="#C69C6D" stop-opacity="0"/>
</linearGradient>
<linearGradient id="paint2_linear" x1="6.26281" y1="39.1917" x2="21.6045" y2="39.1917" gradientUnits="userSpaceOnUse">
<stop stop-color="#FCD847"/>
<stop offset="1" stop-color="#A47E1B"/>
</linearGradient>
</defs>
</svg>
