<svg width="14" height="18" viewBox="0 0 14 18" fill="none" xmlns="http://www.w3.org/2000/svg">
<path d="M4.06425 17.3334C3.97601 17.3324 3.88914 17.3114 3.81018 17.272C3.73123 17.2326 3.66224 17.1758 3.60842 17.1059C3.55774 17.0385 3.52376 16.9601 3.50927 16.8771C3.49478 16.7941 3.5002 16.7089 3.52508 16.6284L5.00925 11.3925C5.04816 11.257 5.05416 11.1142 5.02675 10.9759C4.99992 10.8434 4.94367 10.7188 4.86218 10.611C4.78068 10.5033 4.67602 10.4152 4.55592 10.3534C4.42958 10.2886 4.28954 10.2552 4.14758 10.2559H1.23092C1.15293 10.2553 1.07535 10.2446 1.00008 10.2242C0.928228 10.2052 0.859067 10.1772 0.79425 10.1409C0.66812 10.0697 0.560946 9.96927 0.481759 9.84803C0.402573 9.72678 0.353696 9.58828 0.33925 9.44419C0.332115 9.37031 0.334355 9.29583 0.345916 9.22252C0.357716 9.14592 0.37928 9.07114 0.410083 9.00002L3.76258 1.35252C3.85209 1.14858 3.99905 0.975126 4.18551 0.853333C4.37197 0.731541 4.58987 0.666685 4.81258 0.666687L7.25425 0.666687L4.37092 7.45085C4.33051 7.54633 4.30251 7.64659 4.28758 7.74919C4.27328 7.84689 4.27132 7.946 4.28175 8.04419C4.30234 8.23583 4.36845 8.41977 4.47456 8.58067C4.58067 8.74158 4.72371 8.87478 4.89175 8.96919C4.97816 9.01721 5.07027 9.05417 5.16592 9.07919C5.26632 9.10532 5.36966 9.11848 5.47342 9.11835C5.66502 9.11807 5.85574 9.14443 6.04008 9.19669C6.21391 9.24606 6.38017 9.31896 6.53425 9.41335C6.83268 9.59819 7.07882 9.85637 7.2492 10.1633C7.41958 10.4702 7.50853 10.8156 7.50758 11.1667C7.50621 11.3474 7.48014 11.5272 7.43008 11.7009C7.37685 11.8847 7.29832 12.0603 7.19675 12.2225L4.01008 17.3334C4.02842 17.3334 4.04675 17.3334 4.06508 17.3334C4.13858 17.3336 4.21129 17.3183 4.27842 17.2884C4.30749 17.2759 4.33538 17.2608 4.36175 17.2434C4.27415 17.3031 4.1703 17.3345 4.06425 17.3334Z" fill="white"/>
<path opacity="0.92" d="M4.49007 17.1184L10.1392 9.88419C10.2849 9.69761 10.3753 9.47387 10.3999 9.23845C10.4246 9.00303 10.3827 8.76541 10.2789 8.55267C10.1751 8.33994 10.0136 8.16065 9.81282 8.03524C9.61206 7.90982 9.38012 7.84334 9.14341 7.84335C8.95744 7.84334 8.77441 7.79699 8.61086 7.70849C8.44731 7.61999 8.30839 7.49213 8.20666 7.33646C8.10492 7.1808 8.04357 7.00223 8.02817 6.81691C8.01276 6.63159 8.04378 6.44535 8.11841 6.27502L9.87257 2.27502C9.9493 2.10058 9.98134 1.90978 9.9658 1.71985C9.95026 1.52992 9.88763 1.34685 9.78358 1.18721C9.67952 1.02756 9.5373 0.89637 9.36981 0.805488C9.20231 0.714606 9.01481 0.666901 8.82424 0.666687L7.25508 0.666687L4.3709 7.45085C4.29353 7.63309 4.26251 7.83167 4.28062 8.02883C4.29874 8.22598 4.36542 8.41558 4.47471 8.58067C4.584 8.74576 4.7325 8.8812 4.90692 8.97488C5.08134 9.06857 5.27625 9.11757 5.47424 9.11752C5.83658 9.11761 6.1923 9.21463 6.5045 9.39853C6.8167 9.58244 7.07402 9.84652 7.24975 10.1634C7.42549 10.4803 7.51325 10.8384 7.50393 11.2006C7.49461 11.5628 7.38854 11.9159 7.19674 12.2234L4.01007 17.3334C4.10187 17.3424 4.19444 17.3273 4.27863 17.2896C4.36281 17.2519 4.43569 17.1929 4.49007 17.1184Z" fill="white"/>
<g opacity="0.2">
<path opacity="0.2" d="M10.8714 10.7533C10.8474 10.7461 10.8242 10.7363 10.8023 10.7242C10.7661 10.7044 10.7339 10.6782 10.7073 10.6467C10.6783 10.6124 10.6568 10.5725 10.6442 10.5294C10.6316 10.4864 10.6281 10.4412 10.6339 10.3967L10.8614 8.32418C10.8805 8.15543 10.8345 7.98575 10.7328 7.84978C10.631 7.7138 10.4812 7.62179 10.3139 7.59251L9.39726 7.42584C9.30554 7.40977 9.21947 7.37046 9.14726 7.31168C9.07834 7.25677 9.02345 7.18629 8.98708 7.10603C8.95072 7.02577 8.93393 6.93802 8.93809 6.85001C8.94308 6.7571 8.97177 6.66702 9.02142 6.58834L10.7056 3.95584C10.7363 3.90644 10.7794 3.86593 10.8306 3.83834C10.8771 3.81373 10.9288 3.80086 10.9814 3.80084C11.0505 3.8011 11.1181 3.82168 11.1756 3.86001C11.2147 3.88703 11.2474 3.9223 11.2714 3.96334C11.2604 3.9434 11.2472 3.92469 11.2323 3.90751C11.2019 3.87586 11.1657 3.85039 11.1256 3.83251L10.3614 6.20168C10.3004 6.39072 10.3132 6.59586 10.3973 6.77583C10.4814 6.9558 10.6306 7.09723 10.8148 7.17168L11.2539 7.35001C11.4413 7.4258 11.5923 7.57088 11.6754 7.7551C11.7586 7.93931 11.7676 8.14849 11.7006 8.33918L10.8548 10.7475L10.8723 10.7533H10.8714Z" fill="white"/>
<path opacity="0.88" d="M12.5756 7.12917L11.6314 6.945C11.4663 6.9135 11.3192 6.82078 11.2195 6.68542C11.1198 6.55005 11.075 6.38203 11.0939 6.215L11.3181 4.17083C11.3271 4.10107 11.3133 4.03025 11.2786 3.96906C11.2438 3.90788 11.1901 3.85965 11.1256 3.83167L10.3614 6.20167C10.3004 6.39071 10.3132 6.59585 10.3973 6.77582C10.4814 6.95579 10.6306 7.09722 10.8148 7.17166L11.2539 7.35C11.4413 7.42579 11.5923 7.57087 11.6754 7.75509C11.7586 7.9393 11.7676 8.14848 11.7006 8.33916L10.8547 10.7475C10.9258 10.7743 11.004 10.7756 11.0758 10.7509C11.1476 10.7263 11.2085 10.6773 11.2481 10.6125L12.9364 7.96833C12.9848 7.89237 13.0139 7.80574 13.0211 7.71598C13.0284 7.62621 13.0135 7.53604 12.978 7.45331C12.9424 7.37058 12.8871 7.2978 12.817 7.2413C12.7469 7.18481 12.664 7.14631 12.5756 7.12917Z" fill="white"/>
</g>
</svg>
