<svg width="20" height="20" viewBox="0 0 20 20" fill="none" xmlns="http://www.w3.org/2000/svg">
<path opacity="0.08" d="M10.9483 17.5867C14.6146 17.5867 17.5867 14.6146 17.5867 10.9483C17.5867 7.28208 14.6146 4.31 10.9483 4.31C7.28208 4.31 4.31 7.28208 4.31 10.9483C4.31 14.6146 7.28208 17.5867 10.9483 17.5867Z" fill="white"/>
<path opacity="0.3" d="M10.3158 2.75662C10.525 2.74078 10.7325 2.72995 10.9483 2.72995C11.1641 2.72995 11.3716 2.74078 11.5808 2.75662V1.78162H10.3158V2.75662Z" fill="white"/>
<path opacity="0.6" d="M17.7779 2.74367L16.8516 3.66998L18.2405 5.05886L19.1668 4.13255L17.7779 2.74367Z" fill="white"/>
<path opacity="0.3" d="M17.3146 4.13283L16.3883 5.05914L16.8515 5.5223L17.7778 4.59599L17.3146 4.13283Z" fill="white"/>
<path opacity="0.2" d="M5.01748 16.6383H3.36169C3.27785 16.6383 3.19736 16.6051 3.138 16.5459C3.07864 16.4867 3.04524 16.4063 3.04502 16.3225C3.04502 16.2809 3.05322 16.2397 3.06913 16.2013C3.08505 16.1629 3.10829 16.128 3.1377 16.0986C3.1671 16.0692 3.20202 16.0459 3.24044 16.0299C3.27886 16.014 3.32011 16.0058 3.36169 16.0058H4.46918C4.64067 16.2252 4.82313 16.4357 5.01585 16.6367L5.01748 16.6383ZM3.49913 14.4258H1.46503C1.38119 14.4256 1.30084 14.3922 1.24164 14.3328C1.18243 14.2734 1.14917 14.193 1.14917 14.1092C1.14917 14.0254 1.18241 13.9451 1.24164 13.8858C1.30087 13.8266 1.38126 13.7933 1.46503 13.7933H3.23494C3.31328 14.0042 3.40164 14.2167 3.49831 14.4242L3.49913 14.4258ZM2.82662 12.2133H1.14998C1.1084 12.2133 1.06725 12.2051 1.02883 12.1892C0.990409 12.1733 0.955492 12.15 0.926086 12.1206C0.896681 12.0912 0.873336 12.0563 0.857422 12.0179C0.841508 11.9794 0.833313 11.9383 0.833313 11.8967C0.833534 11.8128 0.867029 11.7325 0.926392 11.6733C0.985754 11.6141 1.06614 11.5808 1.14998 11.5808H2.75419C2.77002 11.7892 2.79412 11.9975 2.82662 12.2125V12.2133ZM2.7841 10H1.46503C1.38126 10 1.30087 9.96673 1.24164 9.9075C1.18241 9.84827 1.14917 9.76794 1.14917 9.68417C1.14917 9.60041 1.18241 9.52007 1.24164 9.46084C1.30087 9.40161 1.38126 9.36834 1.46503 9.36834H2.88165C2.84165 9.5725 2.8091 9.785 2.7841 9.99917V10ZM3.35996 7.7875H2.41412C2.33028 7.7875 2.24989 7.75426 2.19053 7.69505C2.13117 7.63584 2.09767 7.55551 2.09745 7.47167C2.09745 7.38769 2.13084 7.30714 2.19023 7.24775C2.24961 7.18837 2.33014 7.155 2.41412 7.155H3.65578C3.55078 7.35667 3.4508 7.57167 3.35996 7.78667V7.7875ZM4.73 5.575H3.99412C3.91028 5.57501 3.82989 5.54176 3.77053 5.48255C3.71117 5.42334 3.67767 5.34301 3.67745 5.25917C3.67745 5.17519 3.71084 5.09464 3.77022 5.03525C3.82961 4.97587 3.91013 4.9425 3.99412 4.9425H5.33832C5.1246 5.14224 4.92156 5.35309 4.73 5.57417V5.575Z" fill="white"/>
<path opacity="0.6" d="M11.58 1.78165H12.37C12.4957 1.78165 12.6163 1.73169 12.7053 1.64277C12.7942 1.55384 12.8441 1.43324 12.8441 1.30748C12.8441 1.18187 12.7943 1.06139 12.7056 0.972487C12.6168 0.883588 12.4964 0.833534 12.3708 0.833313H9.5258C9.40005 0.833313 9.27944 0.88327 9.19052 0.972193C9.10159 1.06112 9.05164 1.18172 9.05164 1.30748C9.05164 1.43324 9.10159 1.55384 9.19052 1.64277C9.27944 1.73169 9.40005 1.78165 9.5258 1.78165H11.5808H11.58Z" fill="white"/>
<path d="M10.9484 19.1666C8.76947 19.1642 6.68046 18.2976 5.13975 16.7569C3.59904 15.2162 2.73241 13.1272 2.72998 10.9483C2.73241 8.76942 3.59904 6.68046 5.13975 5.13975C6.68046 3.59904 8.76947 2.73241 10.9484 2.72998C13.1273 2.73241 15.2162 3.59904 16.7569 5.13975C18.2976 6.68046 19.1642 8.76942 19.1666 10.9483C19.1642 13.1272 18.2976 15.2162 16.7569 16.7569C15.2162 18.2976 13.1273 19.1642 10.9484 19.1666ZM10.9484 4.30998C9.18845 4.31197 7.50116 5.01202 6.25679 6.25655C5.01243 7.50107 4.31256 9.1884 4.31079 10.9483C4.31278 12.7081 5.01276 14.3952 6.2571 15.6395C7.50144 16.8839 9.1886 17.5838 10.9484 17.5858C12.7083 17.584 14.3955 16.8842 15.64 15.6398C16.8846 14.3955 17.5847 12.7082 17.5866 10.9483C17.5838 9.18891 16.8833 7.50243 15.6389 6.25865C14.3945 5.01487 12.7078 4.3153 10.9484 4.31331V4.30998Z" fill="white"/>
<path d="M14.6233 7.31164C14.5738 7.26216 14.5083 7.23189 14.4386 7.22624C14.3688 7.22059 14.2993 7.23994 14.2425 7.28081L10.4317 10.0375C10.3087 10.1265 10.2065 10.2412 10.1322 10.3737C10.0579 10.5061 10.0132 10.653 10.0012 10.8044C9.98921 10.9558 10.0102 11.1079 10.0628 11.2504C10.1154 11.3928 10.1982 11.5222 10.3056 11.6295C10.4131 11.7368 10.5425 11.8195 10.685 11.8719C10.8275 11.9243 10.9797 11.9451 11.1311 11.933C11.2824 11.9208 11.4293 11.876 11.5617 11.8015C11.694 11.727 11.8086 11.6247 11.8975 11.5016L14.6533 7.69164C14.6942 7.63505 14.7137 7.56575 14.7082 7.49613C14.7027 7.42651 14.6726 7.36111 14.6233 7.31164Z" fill="white"/>
<path d="M10.8892 3.90167C10.8202 3.90167 10.7541 3.92906 10.7053 3.97782C10.6565 4.02658 10.6292 4.09272 10.6292 4.16167V4.94167C10.6292 5.01063 10.6565 5.07676 10.7053 5.12552C10.7541 5.17428 10.8202 5.20167 10.8892 5.20167C10.9581 5.20167 11.0242 5.17428 11.073 5.12552C11.1218 5.07676 11.1492 5.01063 11.1492 4.94167V4.16167C11.1492 4.09272 11.1218 4.02658 11.073 3.97782C11.0242 3.92906 10.9581 3.90167 10.8892 3.90167Z" fill="white"/>
<path d="M10.8892 16.6442C10.8202 16.6442 10.7541 16.6716 10.7053 16.7203C10.6565 16.7691 10.6292 16.8352 10.6292 16.9042V17.6842C10.6292 17.7531 10.6565 17.8193 10.7053 17.868C10.7541 17.9168 10.8202 17.9442 10.8892 17.9442C10.9581 17.9442 11.0242 17.9168 11.073 17.868C11.1218 17.8193 11.1492 17.7531 11.1492 17.6842V16.9042C11.1492 16.8352 11.1218 16.7691 11.073 16.7203C11.0242 16.6716 10.9581 16.6442 10.8892 16.6442Z" fill="white"/>
<path d="M17.6074 10.6625H16.8274C16.7585 10.6625 16.6924 10.6899 16.6436 10.7386C16.5948 10.7874 16.5674 10.8535 16.5674 10.9225C16.5674 10.9914 16.5948 11.0576 16.6436 11.1063C16.6924 11.1551 16.7585 11.1825 16.8274 11.1825H17.6074C17.6764 11.1825 17.7425 11.1551 17.7913 11.1063C17.8401 11.0576 17.8674 10.9914 17.8674 10.9225C17.8674 10.8535 17.8401 10.7874 17.7913 10.7386C17.7425 10.6899 17.6764 10.6625 17.6074 10.6625Z" fill="white"/>
<path d="M14.3575 4.84169C14.2978 4.80725 14.2269 4.79791 14.1603 4.81572C14.0937 4.83354 14.037 4.87704 14.0025 4.93669L13.6125 5.61252C13.594 5.64212 13.5817 5.67512 13.5763 5.70957C13.5709 5.74402 13.5724 5.77921 13.5809 5.81304C13.5893 5.84687 13.6045 5.87866 13.6255 5.90651C13.6465 5.93436 13.6729 5.9577 13.703 5.97515C13.7332 5.99259 13.7666 6.00378 13.8012 6.00806C13.8359 6.01233 13.871 6.0096 13.9045 6.00003C13.938 5.99045 13.9693 5.97423 13.9964 5.95233C14.0236 5.93042 14.046 5.90328 14.0625 5.87252L14.4525 5.19669C14.4869 5.13701 14.4962 5.06609 14.4784 4.99953C14.4606 4.93296 14.4171 4.87619 14.3575 4.84169Z" fill="white"/>
<path d="M16.8325 14.0783L16.1567 13.6883C16.1271 13.6699 16.0941 13.6576 16.0596 13.6522C16.0252 13.6467 15.99 13.6483 15.9561 13.6567C15.9223 13.6652 15.8905 13.6804 15.8627 13.7014C15.8348 13.7223 15.8115 13.7487 15.794 13.7789C15.7766 13.8091 15.7654 13.8425 15.7611 13.8771C15.7568 13.9117 15.7596 13.9468 15.7691 13.9804C15.7787 14.0139 15.7949 14.0452 15.8168 14.0723C15.8388 14.0994 15.8659 14.1219 15.8967 14.1383L16.5725 14.5283C16.632 14.5601 16.7015 14.5675 16.7664 14.549C16.8312 14.5305 16.8864 14.4875 16.9201 14.4291C16.9539 14.3706 16.9636 14.3014 16.9472 14.236C16.9309 14.1705 16.8897 14.114 16.8325 14.0783Z" fill="white"/>
<path d="M14.0625 15.9725C14.0268 15.9152 13.9703 15.8741 13.9048 15.8577C13.8394 15.8414 13.7701 15.8511 13.7117 15.8849C13.6533 15.9186 13.6103 15.9737 13.5918 16.0386C13.5733 16.1035 13.5807 16.173 13.6125 16.2325L14.0025 16.9083C14.0381 16.9656 14.0947 17.0067 14.1601 17.0231C14.2255 17.0394 14.2948 17.0297 14.3532 16.9959C14.4116 16.9622 14.4546 16.9071 14.4731 16.8422C14.4917 16.7773 14.4842 16.7078 14.4525 16.6483L14.0625 15.9725Z" fill="white"/>
<path d="M16.0266 8.19167C16.0723 8.1917 16.1171 8.17963 16.1566 8.15667L16.8325 7.76667C16.8632 7.75024 16.8904 7.72779 16.9123 7.70066C16.9342 7.67353 16.9504 7.64226 16.96 7.60873C16.9695 7.5752 16.9723 7.54008 16.968 7.50547C16.9637 7.47086 16.9525 7.43747 16.9351 7.40727C16.9176 7.37708 16.8943 7.3507 16.8664 7.32971C16.8386 7.30872 16.8068 7.29355 16.773 7.2851C16.7391 7.27664 16.704 7.27508 16.6695 7.28051C16.6351 7.28593 16.602 7.29823 16.5725 7.31668L15.8966 7.70668C15.8471 7.73533 15.8085 7.7795 15.7866 7.83234C15.7648 7.88519 15.761 7.94376 15.7758 7.99899C15.7906 8.05422 15.8232 8.10303 15.8685 8.13787C15.9139 8.1727 15.9694 8.19161 16.0266 8.19167Z" fill="white"/>
<path d="M4.16247 10.6625H4.94246C5.01142 10.6625 5.07755 10.6899 5.12631 10.7386C5.17507 10.7874 5.20246 10.8535 5.20246 10.9225C5.20246 10.9914 5.17507 11.0576 5.12631 11.1063C5.07755 11.1551 5.01142 11.1825 4.94246 11.1825H4.16247C4.09351 11.1825 4.02738 11.1551 3.97862 11.1063C3.92986 11.0576 3.90247 10.9914 3.90247 10.9225C3.90247 10.8535 3.92986 10.7874 3.97862 10.7386C4.02738 10.6899 4.09351 10.6625 4.16247 10.6625Z" fill="white"/>
<path d="M7.41331 4.84169C7.47299 4.80725 7.54391 4.79791 7.61047 4.81572C7.67703 4.83354 7.73381 4.87704 7.76831 4.93669L8.15831 5.61252C8.17676 5.64212 8.18905 5.67512 8.19448 5.70957C8.1999 5.74402 8.19834 5.77921 8.18989 5.81304C8.18144 5.84687 8.16627 5.87866 8.14528 5.90651C8.12429 5.93436 8.09791 5.9577 8.06772 5.97515C8.03752 5.99259 8.00413 6.00378 7.96952 6.00806C7.93491 6.01233 7.89979 6.0096 7.86626 6.00003C7.83273 5.99045 7.80146 5.97423 7.77433 5.95233C7.74719 5.93042 7.72474 5.90328 7.70831 5.87252L7.31831 5.19669C7.28387 5.13701 7.27453 5.06609 7.29235 4.99953C7.31016 4.93296 7.35367 4.87619 7.41331 4.84169Z" fill="white"/>
<path d="M4.93494 14.0783L5.61078 13.6883C5.64037 13.6699 5.67338 13.6576 5.70782 13.6522C5.74227 13.6467 5.77746 13.6483 5.81129 13.6567C5.84512 13.6652 5.87691 13.6804 5.90476 13.7014C5.93261 13.7223 5.95595 13.7487 5.9734 13.7789C5.99084 13.8091 6.00204 13.8425 6.00631 13.8771C6.01059 13.9117 6.00786 13.9468 5.99828 13.9804C5.98871 14.0139 5.97248 14.0452 5.95058 14.0723C5.92867 14.0994 5.90154 14.1219 5.87078 14.1383L5.19494 14.5283C5.13544 14.5601 5.06592 14.5675 5.00105 14.549C4.93619 14.5305 4.88106 14.4875 4.84732 14.4291C4.81357 14.3706 4.80384 14.3014 4.82019 14.236C4.83654 14.1705 4.87769 14.114 4.93494 14.0783Z" fill="white"/>
<path d="M7.70747 15.9725C7.74314 15.9152 7.79967 15.8741 7.86512 15.8577C7.93056 15.8414 7.9998 15.8511 8.05821 15.8849C8.11662 15.9186 8.15963 15.9737 8.17815 16.0386C8.19667 16.1035 8.18925 16.173 8.15747 16.2325L7.76747 16.9083C7.7318 16.9656 7.67527 17.0067 7.60982 17.0231C7.54438 17.0394 7.47514 17.0297 7.41673 16.9959C7.35832 16.9622 7.31532 16.9071 7.2968 16.8422C7.27828 16.7773 7.28569 16.7078 7.31747 16.6483L7.70747 15.9725Z" fill="white"/>
<path d="M5.74332 8.19167C5.69766 8.1917 5.6528 8.17963 5.61332 8.15667L4.93749 7.76667C4.90673 7.75024 4.87959 7.72779 4.85768 7.70066C4.83578 7.67353 4.81955 7.64226 4.80998 7.60873C4.8004 7.5752 4.79767 7.54008 4.80195 7.50547C4.80622 7.47086 4.81742 7.43747 4.83486 7.40727C4.85231 7.37708 4.87565 7.3507 4.9035 7.32971C4.93135 7.30872 4.96314 7.29355 4.99697 7.2851C5.0308 7.27664 5.06599 7.27508 5.10044 7.28051C5.13488 7.28593 5.16789 7.29823 5.19749 7.31668L5.87332 7.70668C5.9228 7.73533 5.96146 7.7795 5.98331 7.83234C6.00516 7.88519 6.00897 7.94376 5.99417 7.99899C5.97936 8.05422 5.94676 8.10303 5.90141 8.13787C5.85607 8.1727 5.8005 8.19161 5.74332 8.19167Z" fill="white"/>
</svg>
